<svg version="1.1" id="Layer_1" xmlns="http://www.w3.org/2000/svg" xmlns:xlink="http://www.w3.org/1999/xlink" x="0px" y="0px"
	 width="100%" viewBox="0 0 1580 649" enable-background="new 0 0 1580 649" xml:space="preserve">
<path fill="#FFFFFF" opacity="1.000000" stroke="none" 
	d="
M1204.000000,650.000000 
	C802.711548,650.000000 401.923065,650.000000 1.067302,650.000000 
	C1.067302,433.735779 1.067302,217.471512 1.067302,1.103626 
	C527.666626,1.103626 1054.333374,1.103626 1580.978394,1.103626 
	C1580.978394,217.410553 1580.978394,433.705292 1580.978394,650.000000 
	C1455.471191,650.000000 1329.985596,650.000000 1204.000000,650.000000 
M182.295776,258.054779 
	C151.253693,275.410400 120.211624,292.765991 88.519234,310.485199 
	C101.249039,322.277130 113.500000,333.625488 125.930832,345.140472 
	C126.785469,344.005280 127.308990,343.379486 127.757629,342.703949 
	C145.708771,315.675415 163.661072,288.647644 181.568359,261.590057 
	C182.265076,260.537354 182.521759,259.193451 183.342911,257.968018 
	C183.231796,257.982727 183.120667,257.997406 182.295776,258.054779 
M1059.048584,546.041260 
	C1059.048584,546.041260 1059.350708,546.337585 1059.283203,547.144958 
	C1058.600952,551.741577 1057.371826,556.335754 1057.351440,560.935303 
	C1057.310547,570.164551 1063.763184,575.169861 1072.262695,571.772522 
	C1078.425049,569.309387 1083.881470,564.934570 1089.390259,561.040955 
	C1092.265015,559.009094 1094.573242,556.175598 1097.137329,553.704163 
	C1097.479126,553.924072 1097.820801,554.144043 1098.162598,554.363953 
	C1096.142334,560.380432 1094.122070,566.396912 1091.775879,573.384460 
	C1094.435303,572.754761 1096.167603,572.476929 1097.811646,571.932190 
	C1104.721680,569.642517 1107.407715,563.026001 1111.754150,558.124573 
	C1120.010498,548.814026 1128.065063,539.321106 1136.478638,530.156494 
	C1138.132568,528.354858 1141.030029,527.694885 1143.354004,526.508362 
	C1143.703369,526.935486 1144.052612,527.362671 1144.401978,527.789795 
	C1143.674438,529.542847 1142.888062,531.274109 1142.229370,533.052612 
	C1139.127930,541.426270 1134.734741,549.593445 1133.303101,558.247925 
	C1131.305054,570.327332 1138.590088,575.281311 1150.376953,571.298828 
	C1152.095215,570.718262 1154.050659,570.158264 1155.293579,568.962341 
	C1163.526855,561.040222 1171.638794,552.989563 1179.658936,544.851562 
	C1180.576172,543.920837 1180.681519,542.189880 1181.163208,540.829956 
	C1180.732422,540.585388 1180.301514,540.340881 1179.870605,540.096375 
	C1178.841553,541.248718 1177.893799,542.487976 1176.770386,543.539429 
	C1169.138672,550.682434 1161.645264,557.992126 1153.687012,564.753662 
	C1151.745483,566.403320 1147.586182,567.487305 1145.645020,566.492554 
	C1143.863403,565.579712 1142.459961,561.197449 1143.047607,558.894226 
	C1144.958984,551.403503 1147.733643,544.118835 1150.421875,536.845642 
	C1152.260742,531.870178 1154.889771,527.164551 1156.459595,522.118713 
	C1157.817261,517.755371 1155.288330,515.023560 1150.837158,516.129028 
	C1147.243896,517.021423 1143.481689,518.684021 1140.688599,521.057373 
	C1134.102661,526.653625 1127.954468,532.781555 1121.815430,538.881592 
	C1117.602783,543.067383 1113.702393,547.567627 1109.662476,551.927246 
	C1109.306641,549.618530 1109.828369,547.791809 1110.520874,546.032349 
	C1113.385254,538.756165 1116.346924,531.518005 1119.171021,524.226318 
	C1120.024170,522.023132 1121.693970,519.373596 1118.104858,517.992493 
	C1114.898682,516.758728 1111.802734,516.762817 1109.990234,520.413818 
	C1109.481445,521.438660 1109.166748,522.593567 1108.949463,523.724670 
	C1105.239624,543.046082 1092.402954,555.455933 1076.887939,565.704041 
	C1075.073120,566.902771 1071.617554,567.732239 1070.153442,566.800049 
	C1068.411987,565.691284 1067.131714,562.481079 1067.163696,560.202759 
	C1067.301147,550.430481 1071.258423,541.824036 1076.373413,533.683960 
	C1079.123779,529.306824 1078.693115,527.817810 1073.686890,526.961365 
	C1071.842896,526.645935 1069.149414,527.579468 1067.766113,528.905762 
	C1060.191162,536.167908 1053.161499,544.011108 1045.432007,551.095764 
	C1039.577148,556.462341 1033.230225,561.412537 1026.584229,565.755249 
	C1021.729309,568.927673 1018.398254,566.566833 1019.063293,560.730469 
	C1019.425659,557.549561 1020.768799,554.292236 1022.378052,551.473816 
	C1029.617432,538.795044 1040.117432,529.510864 1053.268433,523.316833 
	C1061.077026,519.639038 1069.118408,517.382141 1077.850708,522.151794 
	C1076.419067,519.610168 1074.786743,516.817078 1072.468628,516.021240 
	C1068.836060,514.774109 1064.498047,513.817261 1060.894653,514.641907 
	C1054.667114,516.067017 1048.367920,518.235291 1042.823730,521.372742 
	C1030.732788,528.214905 1019.448730,536.268188 1012.695435,549.031555 
	C1009.133118,555.764282 1010.279236,561.520691 1015.919922,566.551025 
	C1021.912231,571.894836 1029.628296,572.083191 1037.249878,565.820374 
	C1044.811035,559.607239 1051.614624,552.471924 1059.048584,546.041260 
M808.053467,552.046326 
	C808.053467,552.046326 807.738220,551.773499 807.810913,551.015808 
	C810.379150,543.997009 812.816406,536.925598 815.601624,529.993958 
	C816.360962,528.104248 817.934204,526.357910 819.530151,525.017700 
	C830.102234,516.139221 840.942993,507.574921 851.375854,498.538452 
	C859.576050,491.435791 867.173584,483.654785 871.151794,473.216278 
	C874.378662,464.749207 870.367249,458.607880 861.400757,459.022308 
	C857.287964,459.212402 852.635620,460.416565 849.342346,462.740295 
	C844.117065,466.427277 838.841125,470.781342 835.341370,476.024506 
	C827.518494,487.744476 820.796509,500.197937 813.584473,512.327881 
	C811.614807,515.640747 811.372681,520.693726 805.587646,520.386108 
	C805.158508,520.363281 803.971130,522.546692 804.260742,523.028442 
	C806.083252,526.060669 803.794250,527.619263 802.297607,529.500427 
	C798.776184,533.926819 795.152283,538.277588 791.791687,542.822876 
	C790.712341,544.282715 790.327332,546.255859 789.624695,547.994202 
	C790.043396,548.180969 790.462097,548.367737 790.880737,548.554565 
	C795.136658,543.938171 799.392578,539.321838 803.932800,534.941223 
	C803.932800,534.941223 804.213867,535.181030 804.150635,535.930054 
	C799.837280,548.082947 795.523926,560.235901 790.967468,573.073730 
	C797.010437,572.750549 801.260132,570.681213 804.475403,566.520203 
	C809.056763,560.591492 813.267151,554.341003 818.216431,548.740845 
	C824.351807,541.798645 830.982422,535.279724 837.634460,528.820312 
	C838.987366,527.506592 841.385986,527.269836 843.302490,526.536560 
	C843.576904,526.989807 843.851318,527.442993 844.125732,527.896240 
	C841.937439,532.344604 839.252869,536.625122 837.678223,541.281067 
	C835.363831,548.124146 832.990234,555.142944 832.219666,562.257812 
	C831.431458,569.535767 837.622498,574.309814 844.629517,572.336304 
	C849.475891,570.971313 854.386169,568.778687 858.407715,565.796143 
	C863.918640,561.708984 868.614380,556.522705 874.004456,551.485046 
	C874.004456,552.826599 874.057556,553.780396 873.995789,554.726685 
	C873.592834,560.900208 875.364746,565.907349 881.360901,568.713196 
	C887.768616,571.711548 894.020569,571.111511 898.936401,566.236328 
	C904.097778,561.117676 908.418701,555.149475 913.077087,549.527771 
	C913.906128,548.527405 914.590210,547.406860 914.909546,546.953979 
	C914.909546,552.843140 914.299683,558.987305 915.082336,564.948547 
	C915.854370,570.828308 920.856140,574.054932 926.456299,572.380920 
	C931.750671,570.798218 937.490234,568.853699 941.531982,565.340393 
	C948.641235,559.160645 954.605591,551.663696 961.048645,544.717712 
	C961.838562,543.866150 962.623657,543.010132 963.410950,542.156250 
	C963.871338,544.238525 963.507141,545.819031 963.089905,547.385437 
	C961.378174,553.811584 959.462097,560.192078 958.037292,566.680786 
	C957.579956,568.763489 957.867432,571.400818 958.820068,573.272400 
	C959.523132,574.653748 961.796387,575.701416 963.493652,575.914856 
	C964.341980,576.021545 965.672974,574.051575 966.419495,572.802185 
	C967.605957,570.816406 968.291992,568.524780 969.525635,566.575195 
	C981.093750,548.293823 995.078613,532.076965 1011.570984,518.073181 
	C1018.461121,512.222778 1025.863892,507.590454 1035.577148,510.860046 
	C1035.757324,510.920685 1036.094604,510.514008 1036.535400,510.199097 
	C1036.872559,506.856049 1034.776123,505.218903 1031.971680,504.145050 
	C1026.187012,501.930115 1021.526245,504.871826 1017.112671,507.820831 
	C1004.075317,516.531982 993.959839,528.320312 984.026001,540.212769 
	C978.312988,547.052307 973.072876,554.286743 966.914917,562.255737 
	C967.166443,560.082642 967.118286,559.060242 967.415588,558.150635 
	C970.822266,547.729004 974.492615,537.386719 977.589111,526.874939 
	C978.442505,523.977783 978.673096,520.026733 977.344238,517.548828 
	C974.991150,513.160950 962.805847,513.649902 959.182434,517.697449 
	C967.353149,519.382935 969.230652,523.586792 965.321289,531.502075 
	C964.658813,532.843384 963.914673,534.145813 963.174927,535.447205 
	C956.798950,546.664062 947.818176,555.483398 937.559326,563.091248 
	C934.129028,565.635071 930.398010,569.378906 926.000244,566.331421 
	C921.961426,563.532715 923.900146,558.681396 924.491150,554.691223 
	C926.306519,542.436096 933.771118,532.769653 939.549316,522.323425 
	C940.578186,520.463379 943.448120,518.327942 939.778931,516.081055 
	C935.695068,513.580200 931.892944,513.869873 929.993774,517.027161 
	C926.904663,522.162781 924.117615,527.496887 920.780396,532.463135 
	C913.166565,543.793091 905.717224,555.332947 894.223572,563.317200 
	C890.747681,565.731750 886.611816,568.160278 882.724365,565.212341 
	C878.950806,562.350891 880.712524,557.840393 881.793823,554.075012 
	C884.815735,543.551331 890.971069,534.956604 898.735168,527.399292 
	C900.074829,526.095276 901.198914,524.569824 902.750488,522.765381 
	C900.982361,522.000122 899.995422,521.361389 898.923096,521.144165 
	C893.151367,519.974609 888.891479,522.088806 885.992249,527.199829 
	C878.281555,540.792542 868.890015,552.980591 856.204102,562.354187 
	C854.069641,563.931335 851.918396,565.624329 849.516724,566.671692 
	C844.887085,568.690430 841.683899,566.778320 841.851807,561.799133 
	C842.006592,557.210022 842.441162,552.382507 844.042969,548.148193 
	C846.441833,541.807007 850.013062,535.914124 852.994934,529.786377 
	C854.080261,527.555969 855.316101,525.276611 855.768738,522.884399 
	C856.910339,516.849915 853.697754,513.988708 848.108582,516.360718 
	C844.348145,517.956726 840.614624,520.229614 837.679260,523.044495 
	C827.716064,532.598633 818.113037,542.528442 808.053467,552.046326 
M196.870331,408.706573 
	C196.766129,408.666260 196.661926,408.625916 196.557724,408.585571 
	C196.714828,408.714874 196.871933,408.844177 196.880356,409.723419 
	C197.803680,411.847168 198.607132,414.032928 199.668701,416.085144 
	C211.442307,438.845551 223.298691,461.563171 235.049805,484.335144 
	C259.851379,532.397034 284.597687,580.487427 309.389343,628.554382 
	C311.037598,631.750061 312.876770,634.847229 314.931824,638.537292 
	C350.208008,605.360474 385.049561,572.592346 420.206177,539.527954 
	C413.186676,535.368835 406.778687,531.536865 400.337646,527.761169 
	C344.652954,495.119202 288.973175,462.468750 233.264923,429.866974 
	C221.227585,422.822449 209.081238,415.964203 196.870331,408.706573 
M799.170288,231.353424 
	C794.347900,226.631531 789.525513,221.909637 784.606506,217.093140 
	C784.714294,216.881699 784.863586,216.377106 785.178589,216.017761 
	C785.724487,215.394928 786.334595,214.813522 786.984375,214.298752 
	C795.534851,207.524811 801.156677,198.646545 803.655151,188.241119 
	C810.151123,161.187164 809.214844,134.275650 798.867920,108.314598 
	C790.838623,88.168449 775.323547,76.101479 753.591797,75.107201 
	C725.994812,73.844566 698.314392,74.388626 670.669617,74.206055 
	C667.325439,74.183975 665.410339,76.079361 665.111145,79.404526 
	C664.932312,81.390945 664.944397,83.398468 664.944214,85.396500 
	C664.937012,180.033295 664.937500,274.670105 664.940491,369.306885 
	C664.940552,370.972717 664.966553,372.638977 665.007996,374.304321 
	C665.120117,378.810181 666.804749,381.265350 671.948303,381.200409 
	C689.273438,380.981476 706.604248,381.246399 723.930359,381.071259 
	C735.076172,380.958588 746.305603,381.160553 757.342834,379.884125 
	C782.087402,377.022583 799.772461,364.350739 808.268921,340.305603 
	C816.042419,318.306458 816.424377,295.567322 814.328491,272.704987 
	C812.972717,257.916809 808.711487,243.996155 799.170288,231.353424 
M1012.845154,326.500000 
	C1012.849304,340.496948 1012.786621,354.494293 1012.878296,368.490692 
	C1012.955383,380.254425 1013.909668,381.119080 1025.624023,381.119080 
	C1041.815552,381.119080 1041.864258,381.078400 1041.875610,364.882233 
	C1041.903076,325.889771 1041.867432,286.897186 1041.976562,247.904984 
	C1042.011230,235.517456 1043.699951,223.321518 1048.041992,211.650818 
	C1050.968018,203.786346 1054.669922,196.277054 1061.846558,191.309570 
	C1070.584839,185.261261 1080.666626,187.700500 1085.494141,197.133865 
	C1087.137451,200.345062 1088.597534,203.941391 1088.935913,207.477127 
	C1090.218994,220.877884 1091.720459,234.319214 1091.847412,247.757584 
	C1092.223755,287.579803 1091.967285,327.407867 1092.023071,367.233521 
	C1092.027222,370.205963 1092.436523,373.193115 1092.853882,376.145660 
	C1093.344604,379.617096 1095.271118,381.322784 1099.003540,381.169159 
	C1103.994141,380.963776 1109.005005,380.976532 1113.996826,381.166748 
	C1117.476562,381.299316 1119.331299,379.701141 1120.001587,376.517456 
	C1120.445312,374.409882 1120.936401,372.250977 1120.924194,370.117767 
	C1120.647461,321.638916 1120.621826,273.154907 1119.778320,224.685257 
	C1119.527222,210.246887 1116.974121,195.804626 1110.188477,182.658737 
	C1100.108765,163.130844 1076.388672,157.773117 1058.621094,170.775375 
	C1047.534668,178.888443 1042.200195,190.560471 1038.265381,203.142990 
	C1037.762939,204.749451 1037.206421,206.338974 1036.674927,207.936340 
	C1034.966675,206.180618 1034.582886,204.457428 1033.949951,202.831238 
	C1031.063599,195.415161 1028.934692,187.552536 1025.020874,180.716339 
	C1013.113403,159.917480 986.151489,158.008514 970.767822,176.421722 
	C963.664368,184.924118 959.882446,195.001785 956.955750,205.493652 
	C956.365234,207.610596 955.588806,209.675690 954.898132,211.764694 
	C954.479370,211.723129 954.060608,211.681564 953.641846,211.640015 
	C953.094055,206.900803 952.572815,202.158340 951.992798,197.423080 
	C950.961609,189.004440 950.104553,180.556549 948.762207,172.187042 
	C947.992859,167.390259 944.419678,166.058105 939.810059,166.304230 
	C935.362305,166.541733 934.324280,169.424377 933.882446,172.944595 
	C933.530762,175.746048 933.149841,178.570663 933.147949,181.385254 
	C933.106018,243.373444 933.102356,305.361633 933.154175,367.349823 
	C933.156677,370.323792 933.567078,373.327454 934.090942,376.263123 
	C934.695435,379.651154 936.692627,381.364594 940.409424,381.172272 
	C944.896484,380.940063 949.433716,380.798920 953.896484,381.202057 
	C959.154663,381.677032 961.263428,378.958160 961.767883,374.420135 
	C962.134644,371.120331 962.109314,367.769196 962.132324,364.440063 
	C962.417603,323.125275 962.373108,281.804779 963.119507,240.498520 
	C963.369751,226.646210 966.624084,213.090927 973.869141,200.906357 
	C978.321899,193.417969 983.958984,187.059647 993.633057,188.295563 
	C1003.486694,189.554398 1007.482239,197.407242 1008.877625,205.853210 
	C1010.877686,217.959610 1012.385376,230.267853 1012.629761,242.519318 
	C1013.181396,270.169983 1012.829407,297.838654 1012.845154,326.500000 
M1294.055420,95.437988 
	C1294.055298,92.438011 1294.056030,89.438034 1294.055176,86.438057 
	C1294.053101,78.323868 1294.097412,78.177597 1286.087769,75.737091 
	C1263.957153,68.993988 1241.780518,69.479164 1219.638794,75.737923 
	C1208.461182,78.897469 1198.950195,84.718208 1191.358887,93.614578 
	C1182.715088,103.744492 1176.148315,115.041695 1172.032349,127.712097 
	C1163.988037,152.476501 1161.145264,178.107254 1160.173218,203.934784 
	C1159.113770,232.085648 1159.406982,260.244568 1163.083130,288.251831 
	C1165.405029,305.941010 1168.713745,323.383759 1175.693359,339.967957 
	C1185.748169,363.858917 1201.820312,380.029602 1228.738403,383.638641 
	C1256.922241,387.417450 1276.646362,376.198242 1285.477173,350.332825 
	C1287.028320,345.789703 1287.830933,340.992920 1289.028931,336.326050 
	C1289.299072,335.273407 1289.777466,334.274261 1290.642822,331.958252 
	C1292.540527,346.573120 1294.076538,359.625885 1296.035645,372.614838 
	C1296.513794,375.784149 1297.875488,379.098511 1299.719604,381.721283 
	C1302.853638,386.178497 1307.826782,385.475433 1309.781372,380.427338 
	C1310.775269,377.860535 1311.207886,374.921570 1311.212891,372.149597 
	C1311.297974,325.657043 1311.289917,279.164307 1311.233276,232.671692 
	C1311.230591,230.381104 1311.104370,227.828491 1310.098389,225.882401 
	C1309.261108,224.262451 1307.058838,222.312561 1305.437744,222.291382 
	C1286.442871,222.043243 1267.443481,222.102509 1248.445557,222.160263 
	C1245.135254,222.170334 1243.045654,223.985504 1242.983398,227.391357 
	C1242.867676,233.718994 1242.805542,240.055267 1243.012817,246.378387 
	C1243.143188,250.358215 1245.398438,252.193512 1249.575195,252.084961 
	C1257.069458,251.890198 1264.572388,252.032257 1272.071777,252.032791 
	C1280.679321,252.033401 1281.029297,252.041656 1280.810547,260.929047 
	C1280.433350,276.241272 1280.395630,291.636963 1278.637329,306.814789 
	C1277.369385,317.760040 1274.314209,328.682343 1270.624512,339.108215 
	C1267.305908,348.485718 1260.152954,354.757629 1249.634644,356.188110 
	C1231.761597,358.618896 1217.384644,350.275482 1208.835693,332.444733 
	C1201.520874,317.188141 1198.927612,300.765167 1197.001587,284.208374 
	C1193.545898,254.502441 1193.151733,224.703522 1195.035767,194.883530 
	C1196.276367,175.244583 1198.665527,155.715546 1205.052002,136.997726 
	C1214.917603,108.083282 1234.544067,96.656776 1264.280640,99.724922 
	C1273.973022,100.724960 1283.554810,102.798393 1294.055420,104.523552 
	C1294.055420,101.894859 1294.055420,99.153084 1294.055420,95.437988 
M431.475983,415.972839 
	C397.461426,435.591705 363.446869,455.210571 329.432312,474.829437 
	C354.020447,476.695496 378.097504,477.824402 402.179382,478.838470 
	C427.445587,479.902466 452.714508,480.908142 477.985809,481.842896 
	C500.438782,482.673462 522.897034,483.361206 545.352234,484.134125 
	C554.498291,484.448914 563.644470,484.775269 572.786499,485.187164 
	C577.722900,485.409607 582.650635,485.823639 588.804077,486.232391 
	C577.135193,438.814514 565.710266,392.388031 554.112427,345.258667 
	C512.810303,369.060883 472.450745,392.319916 431.475983,415.972839 
M184.777924,264.292755 
	C138.908051,335.291534 93.038185,406.290314 46.873215,477.745850 
	C93.392601,491.695251 139.296143,505.460022 185.721268,519.381165 
	C186.611420,432.598419 187.491882,346.760559 188.372360,260.922668 
	C188.030945,260.827789 187.689529,260.732910 187.348129,260.638031 
	C186.606415,261.647339 185.864716,262.656647 184.777924,264.292755 
M367.294739,201.180786 
	C391.908478,215.512421 416.522217,229.844040 441.135956,244.175659 
	C441.423523,243.858749 441.711090,243.541840 441.998688,243.224930 
	C402.227875,167.112991 362.457062,91.001068 322.374451,14.292403 
	C287.175995,47.858318 252.576706,80.852882 217.619064,114.189171 
	C267.722107,143.330338 317.180023,172.096298 367.294739,201.180786 
M259.541199,175.991089 
	C242.274429,175.031387 225.009781,174.031387 207.740326,173.122635 
	C187.977005,172.082657 168.209534,171.121902 148.443680,170.130112 
	C121.533485,168.779816 94.624557,167.402557 67.711388,166.114227 
	C63.267090,165.901489 58.803860,166.084274 53.301880,166.084274 
	C64.404755,213.074326 75.362068,259.448334 86.462799,306.429291 
	C162.003830,263.914734 236.767288,221.837799 311.530731,179.760864 
	C311.438293,179.362442 311.345856,178.964020 311.253418,178.565598 
	C294.340393,177.710129 277.427368,176.854660 259.541199,175.991089 
M587.193237,179.634384 
	C588.226318,177.840118 589.259338,176.045868 590.588135,173.737976 
	C544.107727,160.025101 498.345123,146.523987 451.774963,132.784637 
	C451.774963,219.818192 451.774963,305.954315 451.774963,392.492828 
	C452.466248,391.757965 453.096222,391.268402 453.498383,390.634369 
	C462.588043,376.303467 471.637451,361.947021 480.724823,347.614685 
	C516.093445,291.832520 551.472656,236.056992 587.193237,179.634384 
M1363.110229,185.636169 
	C1359.412476,194.318161 1354.587891,202.705490 1352.226074,211.736847 
	C1344.898804,239.756836 1345.028564,268.453125 1346.558960,297.139069 
	C1347.421997,313.315735 1350.164185,329.201294 1354.957642,344.716217 
	C1361.200195,364.921082 1376.662476,382.183228 1403.135864,383.667206 
	C1429.222534,385.129547 1449.161743,373.356720 1458.015137,348.812805 
	C1461.046753,340.408264 1463.284790,331.615479 1464.892822,322.818634 
	C1469.685669,296.599426 1470.307495,270.073761 1467.515137,243.668640 
	C1465.951416,228.881973 1463.200806,213.937378 1458.632690,199.825424 
	C1453.219727,183.103439 1442.777832,169.553558 1424.072754,165.710281 
	C1417.459229,164.351425 1410.524658,164.073471 1403.741821,164.115433 
	C1386.871826,164.219757 1372.923706,170.373489 1363.110229,185.636169 
M887.959534,101.500061 
	C887.939514,94.835930 888.082581,88.166145 887.851318,81.509354 
	C887.642517,75.500290 886.150879,74.222336 880.249756,74.171593 
	C875.585083,74.131485 870.919800,74.163292 866.254761,74.163315 
	C853.820129,74.163376 853.663879,74.278275 853.662292,86.549522 
	C853.650330,180.516190 853.652344,274.482849 853.667908,368.449524 
	C853.668335,370.944855 853.775085,373.448944 854.002991,375.933289 
	C854.319031,379.378479 855.872375,381.353577 859.786804,381.172577 
	C864.940552,380.934265 870.113708,381.116394 875.278564,381.116577 
	C887.945068,381.116974 887.956726,381.116730 887.957275,368.405701 
	C887.960938,279.770477 887.959351,191.135254 887.959534,101.500061 
M1524.832275,74.163269 
	C1519.501099,73.379005 1517.111084,76.163338 1516.547485,81.065552 
	C1516.301025,83.209183 1516.057617,85.369751 1516.057129,87.522697 
	C1516.033081,181.290039 1516.030029,275.057373 1516.071411,368.824707 
	C1516.072510,371.295685 1516.486084,373.784424 1516.896851,376.233032 
	C1517.478271,379.699768 1519.479370,381.332672 1523.163696,381.164764 
	C1527.651245,380.960266 1532.155151,381.126251 1536.651978,381.114349 
	C1542.579834,381.098633 1543.963379,379.950989 1544.801392,374.194977 
	C1545.016235,372.719482 1545.027100,371.205292 1545.027222,369.708862 
	C1545.034302,275.275391 1545.036987,180.841904 1544.991089,86.408440 
	C1544.989868,83.940163 1544.558228,81.452225 1544.126953,79.008774 
	C1543.509521,75.510979 1541.344727,73.988396 1537.750977,74.128334 
	C1533.759766,74.283737 1529.757935,74.163567 1524.832275,74.163269 
M705.050964,526.526794 
	C698.994873,540.011841 692.823364,553.447510 687.013123,567.037720 
	C686.188843,568.965576 686.519958,573.370422 687.350891,573.659912 
	C690.102356,574.618652 693.517700,574.899414 696.308228,574.118286 
	C698.414062,573.528748 700.021851,570.978760 701.718994,569.176758 
	C702.803101,568.025696 703.646057,566.647522 705.065369,564.742737 
	C708.242920,579.266968 718.783325,581.735779 730.626038,581.896301 
	C734.424438,581.947876 738.295715,581.628235 742.024414,580.910706 
	C754.808350,578.450562 765.463684,572.657776 772.230652,560.951782 
	C778.356323,550.355042 777.757629,539.365051 769.213684,530.750732 
	C763.173950,524.661133 756.043457,519.646973 749.340393,514.226379 
	C747.779419,512.964111 745.976562,512.000793 743.834839,510.606903 
	C749.717285,509.623016 754.682495,509.059631 759.515564,507.930603 
	C770.878540,505.276215 782.133423,502.388184 791.030151,493.960114 
	C800.511780,484.977814 800.015076,472.256256 789.175049,465.009583 
	C785.559692,462.592651 781.091187,460.919037 776.790649,460.155029 
	C760.832947,457.320068 744.980591,459.403992 729.185730,462.096710 
	C708.455688,465.630768 689.403198,472.769989 673.650513,487.298706 
	C666.777954,493.637268 662.904785,501.228943 665.584839,510.464325 
	C667.977600,518.709595 675.127502,521.954834 682.985168,523.572632 
	C683.909241,523.762817 684.977905,523.250610 685.979553,523.064026 
	C683.986877,520.928955 681.791687,519.923889 679.573853,518.971558 
	C670.294983,514.987244 667.810303,508.181427 673.782654,499.962189 
	C677.303467,495.116821 681.994934,490.556305 687.143250,487.553894 
	C714.524109,471.585785 744.575073,466.381165 775.871399,467.125366 
	C778.942688,467.198395 782.152344,468.152039 785.006104,469.376678 
	C792.614014,472.641449 794.499207,479.610962 789.147827,485.943817 
	C786.207703,489.423218 782.424683,492.482605 778.460083,494.748627 
	C767.109863,501.236023 754.985474,505.620728 741.843750,507.139252 
	C739.463074,507.414368 736.510376,509.530731 735.404297,511.630615 
	C734.680237,513.005249 736.316650,516.297363 737.760376,517.995605 
	C740.546997,521.273376 744.099915,523.886108 747.055298,527.037048 
	C751.928955,532.233337 757.245178,537.192383 761.175049,543.055603 
	C767.647827,552.712646 766.408752,562.782715 759.010010,569.866699 
	C752.516724,576.083740 744.396912,578.327942 735.772705,578.879639 
	C724.513550,579.599915 714.158508,575.625488 713.688477,562.332336 
	C713.677124,562.010559 713.520752,561.690369 713.412476,561.376099 
	C711.971375,557.192932 709.158203,556.458618 705.971924,559.523682 
	C704.293884,561.137939 702.976318,563.193359 701.125854,564.541504 
	C699.561951,565.680847 697.464844,566.088196 695.603760,566.819519 
	C695.492065,564.922668 695.315979,563.026123 695.305176,561.128723 
	C695.301636,560.504578 695.691345,559.862610 695.960083,559.254883 
	C705.411926,537.875305 716.406006,517.343384 730.927429,498.954987 
	C735.926575,492.624634 741.200806,485.817444 750.813721,486.051270 
	C747.744873,479.207672 739.545532,476.183929 733.653625,480.667725 
	C727.685303,485.209656 722.843750,491.266449 717.717041,496.851013 
	C716.706848,497.951538 716.629272,499.917999 716.149231,501.493561 
	C715.099365,504.939362 714.425293,508.553864 712.943909,511.801208 
	C710.738281,516.636169 707.967651,521.213379 705.050964,526.526794 
M250.461182,170.996506 
	C269.732208,172.117874 289.003235,173.239258 308.274231,174.360641 
	C308.391479,173.882156 308.508698,173.403671 308.625916,172.925201 
	C278.090912,154.870239 247.555908,136.815262 216.218857,118.286064 
	C212.442932,135.207779 208.850754,151.305954 205.051987,168.329987 
	C220.153656,169.228821 234.827530,170.102219 250.461182,170.996506 
M197.385742,421.069458 
	C195.577026,417.628265 193.768295,414.187073 191.959579,410.745880 
	C191.616959,410.856812 191.274353,410.967773 190.931732,411.078705 
	C190.931732,446.944885 190.931732,482.811066 190.931732,519.333984 
	C207.030014,514.257263 222.904755,509.251038 239.086075,504.148132 
	C225.063904,476.183380 211.408798,448.950653 197.385742,421.069458 
M532.613525,352.104248 
	C538.702026,348.508514 544.790588,344.912811 551.346313,341.041168 
	C538.623779,329.506866 526.436707,318.458038 513.848633,307.045593 
	C494.796936,336.658966 476.299652,365.410553 457.802399,394.162140 
	C458.165253,394.474609 458.528137,394.787109 458.891022,395.099609 
	C483.252808,380.887939 507.614594,366.676270 532.613525,352.104248 
M442.017487,134.547470 
	C427.701569,139.076843 413.385620,143.606216 398.690277,148.255646 
	C414.712433,179.843826 430.357666,210.688828 446.002869,241.533829 
	C446.285248,241.413208 446.567596,241.292572 446.849976,241.171936 
	C446.849976,205.317017 446.849976,169.462097 446.849976,133.321762 
	C445.287567,133.673477 444.018097,133.959244 442.017487,134.547470 
M401.749207,522.776489 
	C408.441742,526.611450 415.134308,530.446472 422.321075,534.564636 
	C426.102264,517.757874 429.687195,501.823364 433.398071,485.329071 
	C398.081879,483.245392 363.525787,481.206573 328.969696,479.167725 
	C328.926636,479.473450 328.883575,479.779144 328.840546,480.084869 
	C352.939453,494.181732 377.038330,508.278625 401.749207,522.776489 
z"/>
<path fill="#6A37F5" opacity="1.000000" stroke="none" 
	d="
M799.393311,231.632034 
	C808.711487,243.996155 812.972717,257.916809 814.328491,272.704987 
	C816.424377,295.567322 816.042419,318.306458 808.268921,340.305603 
	C799.772461,364.350739 782.087402,377.022583 757.342834,379.884125 
	C746.305603,381.160553 735.076172,380.958588 723.930359,381.071259 
	C706.604248,381.246399 689.273438,380.981476 671.948303,381.200409 
	C666.804749,381.265350 665.120117,378.810181 665.007996,374.304321 
	C664.966553,372.638977 664.940552,370.972717 664.940491,369.306885 
	C664.937500,274.670105 664.937012,180.033295 664.944214,85.396500 
	C664.944397,83.398468 664.932312,81.390945 665.111145,79.404526 
	C665.410339,76.079361 667.325439,74.183975 670.669617,74.206055 
	C698.314392,74.388626 725.994812,73.844566 753.591797,75.107201 
	C775.323547,76.101479 790.838623,88.168449 798.867920,108.314598 
	C809.214844,134.275650 810.151123,161.187164 803.655151,188.241119 
	C801.156677,198.646545 795.534851,207.524811 786.984375,214.298752 
	C786.334595,214.813522 785.724487,215.394928 785.178589,216.017761 
	C784.863586,216.377106 784.714294,216.881699 784.606506,217.093140 
	C789.525513,221.909637 794.347900,226.631531 799.393311,231.632034 
M749.466919,353.146912 
	C759.320862,350.574432 766.681885,344.717468 771.944641,336.092651 
	C777.987671,326.189087 780.517517,315.214355 781.499329,303.841095 
	C782.976196,286.733978 782.401367,269.797699 774.725525,253.982803 
	C767.706543,239.521317 757.099487,230.583328 739.772095,231.599289 
	C728.977600,232.232208 718.115784,231.716080 707.284180,231.717133 
	C699.254333,231.717911 699.236328,231.718994 699.234619,239.737656 
	C699.227295,273.898895 699.231384,308.060120 699.231384,342.221344 
	C699.231323,355.000549 699.236023,355.213257 711.837219,354.940002 
	C724.121643,354.673645 736.395142,353.910339 749.466919,353.146912 
M699.229492,176.499969 
	C699.230408,184.496643 699.298340,192.494125 699.203552,200.489670 
	C699.157471,204.380676 700.460999,206.166840 704.748535,206.084900 
	C717.072266,205.849380 729.403381,206.002670 741.731628,206.001740 
	C757.688232,206.000549 767.134827,199.810806 771.910217,184.410370 
	C778.489563,163.191956 777.369934,141.913132 768.866577,121.405693 
	C764.059753,109.813293 754.861694,102.686371 742.062988,101.888458 
	C730.279236,101.153816 718.434692,101.360603 706.616089,101.231773 
	C699.673828,101.156105 699.244934,101.605972 699.238159,108.527710 
	C699.216370,130.851776 699.229797,153.175888 699.229492,176.499969 
z"/>
<path fill="#6A38F5" opacity="1.000000" stroke="none" 
	d="
M1012.845093,326.000000 
	C1012.829407,297.838654 1013.181396,270.169983 1012.629761,242.519318 
	C1012.385376,230.267853 1010.877686,217.959610 1008.877625,205.853210 
	C1007.482239,197.407242 1003.486694,189.554398 993.633057,188.295563 
	C983.958984,187.059647 978.321899,193.417969 973.869141,200.906357 
	C966.624084,213.090927 963.369751,226.646210 963.119507,240.498520 
	C962.373108,281.804779 962.417603,323.125275 962.132324,364.440063 
	C962.109314,367.769196 962.134644,371.120331 961.767883,374.420135 
	C961.263428,378.958160 959.154663,381.677032 953.896484,381.202057 
	C949.433716,380.798920 944.896484,380.940063 940.409424,381.172272 
	C936.692627,381.364594 934.695435,379.651154 934.090942,376.263123 
	C933.567078,373.327454 933.156677,370.323792 933.154175,367.349823 
	C933.102356,305.361633 933.106018,243.373444 933.147949,181.385254 
	C933.149841,178.570663 933.530762,175.746048 933.882446,172.944595 
	C934.324280,169.424377 935.362305,166.541733 939.810059,166.304230 
	C944.419678,166.058105 947.992859,167.390259 948.762207,172.187042 
	C950.104553,180.556549 950.961609,189.004440 951.992798,197.423080 
	C952.572815,202.158340 953.094055,206.900803 953.641846,211.640015 
	C954.060608,211.681564 954.479370,211.723129 954.898132,211.764694 
	C955.588806,209.675690 956.365234,207.610596 956.955750,205.493652 
	C959.882446,195.001785 963.664368,184.924118 970.767822,176.421722 
	C986.151489,158.008514 1013.113403,159.917480 1025.020874,180.716339 
	C1028.934692,187.552536 1031.063599,195.415161 1033.949951,202.831238 
	C1034.582886,204.457428 1034.966675,206.180618 1036.674927,207.936340 
	C1037.206421,206.338974 1037.762939,204.749451 1038.265381,203.142990 
	C1042.200195,190.560471 1047.534668,178.888443 1058.621094,170.775375 
	C1076.388672,157.773117 1100.108765,163.130844 1110.188477,182.658737 
	C1116.974121,195.804626 1119.527222,210.246887 1119.778320,224.685257 
	C1120.621826,273.154907 1120.647461,321.638916 1120.924194,370.117767 
	C1120.936401,372.250977 1120.445312,374.409882 1120.001587,376.517456 
	C1119.331299,379.701141 1117.476562,381.299316 1113.996826,381.166748 
	C1109.005005,380.976532 1103.994141,380.963776 1099.003540,381.169159 
	C1095.271118,381.322784 1093.344604,379.617096 1092.853882,376.145660 
	C1092.436523,373.193115 1092.027222,370.205963 1092.023071,367.233521 
	C1091.967285,327.407867 1092.223755,287.579803 1091.847412,247.757584 
	C1091.720459,234.319214 1090.218994,220.877884 1088.935913,207.477127 
	C1088.597534,203.941391 1087.137451,200.345062 1085.494141,197.133865 
	C1080.666626,187.700500 1070.584839,185.261261 1061.846558,191.309570 
	C1054.669922,196.277054 1050.968018,203.786346 1048.041992,211.650818 
	C1043.699951,223.321518 1042.011230,235.517456 1041.976562,247.904984 
	C1041.867432,286.897186 1041.903076,325.889771 1041.875610,364.882233 
	C1041.864258,381.078400 1041.815552,381.119080 1025.624023,381.119080 
	C1013.909668,381.119080 1012.955383,380.254425 1012.878296,368.490692 
	C1012.786621,354.494293 1012.849304,340.496948 1012.845093,326.000000 
z"/>
<path fill="#6A37F5" opacity="1.000000" stroke="none" 
	d="
M1294.055420,95.924644 
	C1294.055420,99.153084 1294.055420,101.894859 1294.055420,104.523552 
	C1283.554810,102.798393 1273.973022,100.724960 1264.280640,99.724922 
	C1234.544067,96.656776 1214.917603,108.083282 1205.052002,136.997726 
	C1198.665527,155.715546 1196.276367,175.244583 1195.035767,194.883530 
	C1193.151733,224.703522 1193.545898,254.502441 1197.001587,284.208374 
	C1198.927612,300.765167 1201.520874,317.188141 1208.835693,332.444733 
	C1217.384644,350.275482 1231.761597,358.618896 1249.634644,356.188110 
	C1260.152954,354.757629 1267.305908,348.485718 1270.624512,339.108215 
	C1274.314209,328.682343 1277.369385,317.760040 1278.637329,306.814789 
	C1280.395630,291.636963 1280.433350,276.241272 1280.810547,260.929047 
	C1281.029297,252.041656 1280.679321,252.033401 1272.071777,252.032791 
	C1264.572388,252.032257 1257.069458,251.890198 1249.575195,252.084961 
	C1245.398438,252.193512 1243.143188,250.358215 1243.012817,246.378387 
	C1242.805542,240.055267 1242.867676,233.718994 1242.983398,227.391357 
	C1243.045654,223.985504 1245.135254,222.170334 1248.445557,222.160263 
	C1267.443481,222.102509 1286.442871,222.043243 1305.437744,222.291382 
	C1307.058838,222.312561 1309.261108,224.262451 1310.098389,225.882401 
	C1311.104370,227.828491 1311.230591,230.381104 1311.233276,232.671692 
	C1311.289917,279.164307 1311.297974,325.657043 1311.212891,372.149597 
	C1311.207886,374.921570 1310.775269,377.860535 1309.781372,380.427338 
	C1307.826782,385.475433 1302.853638,386.178497 1299.719604,381.721283 
	C1297.875488,379.098511 1296.513794,375.784149 1296.035645,372.614838 
	C1294.076538,359.625885 1292.540527,346.573120 1290.642822,331.958252 
	C1289.777466,334.274261 1289.299072,335.273407 1289.028931,336.326050 
	C1287.830933,340.992920 1287.028320,345.789703 1285.477173,350.332825 
	C1276.646362,376.198242 1256.922241,387.417450 1228.738403,383.638641 
	C1201.820312,380.029602 1185.748169,363.858917 1175.693359,339.967957 
	C1168.713745,323.383759 1165.405029,305.941010 1163.083130,288.251831 
	C1159.406982,260.244568 1159.113770,232.085648 1160.173218,203.934784 
	C1161.145264,178.107254 1163.988037,152.476501 1172.032349,127.712097 
	C1176.148315,115.041695 1182.715088,103.744492 1191.358887,93.614578 
	C1198.950195,84.718208 1208.461182,78.897469 1219.638794,75.737923 
	C1241.780518,69.479164 1263.957153,68.993988 1286.087769,75.737091 
	C1294.097412,78.177597 1294.053101,78.323868 1294.055176,86.438057 
	C1294.056030,89.438034 1294.055298,92.438011 1294.055420,95.924644 
z"/>
<path fill="#BB85E8" opacity="1.000000" stroke="none" 
	d="
M431.783569,415.775879 
	C472.450745,392.319916 512.810303,369.060883 554.112427,345.258667 
	C565.710266,392.388031 577.135193,438.814514 588.804077,486.232391 
	C582.650635,485.823639 577.722900,485.409607 572.786499,485.187164 
	C563.644470,484.775269 554.498291,484.448914 545.352234,484.134125 
	C522.897034,483.361206 500.438782,482.673462 477.985809,481.842896 
	C452.714508,480.908142 427.445587,479.902466 402.179382,478.838470 
	C378.097504,477.824402 354.020447,476.695496 329.432312,474.829437 
	C363.446869,455.210571 397.461426,435.591705 431.783569,415.775879 
z"/>
<path fill="#BB85E8" opacity="1.000000" stroke="none" 
	d="
M184.950470,263.979370 
	C185.864716,262.656647 186.606415,261.647339 187.348129,260.638031 
	C187.689529,260.732910 188.030945,260.827789 188.372360,260.922668 
	C187.491882,346.760559 186.611420,432.598419 185.721268,519.381165 
	C139.296143,505.460022 93.392601,491.695251 46.873215,477.745850 
	C93.038185,406.290314 138.908051,335.291534 184.950470,263.979370 
z"/>
<path fill="#BB84E8" opacity="1.000000" stroke="none" 
	d="
M366.966339,201.021515 
	C317.180023,172.096298 267.722107,143.330338 217.619064,114.189171 
	C252.576706,80.852882 287.175995,47.858318 322.374451,14.292403 
	C362.457062,91.001068 402.227875,167.112991 441.998688,243.224930 
	C441.711090,243.541840 441.423523,243.858749 441.135956,244.175659 
	C416.522217,229.844040 391.908478,215.512421 366.966339,201.021515 
z"/>
<path fill="#BB85E8" opacity="1.000000" stroke="none" 
	d="
M260.027771,175.995148 
	C277.427368,176.854660 294.340393,177.710129 311.253418,178.565598 
	C311.345856,178.964020 311.438293,179.362442 311.530731,179.760864 
	C236.767288,221.837799 162.003830,263.914734 86.462799,306.429291 
	C75.362068,259.448334 64.404755,213.074326 53.301880,166.084274 
	C58.803860,166.084274 63.267090,165.901489 67.711388,166.114227 
	C94.624557,167.402557 121.533485,168.779816 148.443680,170.130112 
	C168.209534,171.121902 187.977005,172.082657 207.740326,173.122635 
	C225.009781,174.031387 242.274429,175.031387 260.027771,175.995148 
z"/>
<path fill="#BB85E8" opacity="1.000000" stroke="none" 
	d="
M196.985123,409.020111 
	C209.081238,415.964203 221.227585,422.822449 233.264923,429.866974 
	C288.973175,462.468750 344.652954,495.119202 400.337646,527.761169 
	C406.778687,531.536865 413.186676,535.368835 420.206177,539.527954 
	C385.049561,572.592346 350.208008,605.360474 314.931824,638.537292 
	C312.876770,634.847229 311.037598,631.750061 309.389343,628.554382 
	C284.597687,580.487427 259.851379,532.397034 235.049805,484.335144 
	C223.298691,461.563171 211.442307,438.845551 199.668701,416.085144 
	C198.607132,414.032928 197.803680,411.847168 196.942719,409.359467 
	C197.005081,408.995514 196.985123,409.020111 196.985123,409.020111 
z"/>
<path fill="#BB84E8" opacity="1.000000" stroke="none" 
	d="
M587.020569,179.956696 
	C551.472656,236.056992 516.093445,291.832520 480.724823,347.614685 
	C471.637451,361.947021 462.588043,376.303467 453.498383,390.634369 
	C453.096222,391.268402 452.466248,391.757965 451.774963,392.492828 
	C451.774963,305.954315 451.774963,219.818192 451.774963,132.784637 
	C498.345123,146.523987 544.107727,160.025101 590.588135,173.737976 
	C589.259338,176.045868 588.226318,177.840118 587.020569,179.956696 
z"/>
<path fill="#6A38F5" opacity="1.000000" stroke="none" 
	d="
M1363.320435,185.343948 
	C1372.923706,170.373489 1386.871826,164.219757 1403.741821,164.115433 
	C1410.524658,164.073471 1417.459229,164.351425 1424.072754,165.710281 
	C1442.777832,169.553558 1453.219727,183.103439 1458.632690,199.825424 
	C1463.200806,213.937378 1465.951416,228.881973 1467.515137,243.668640 
	C1470.307495,270.073761 1469.685669,296.599426 1464.892822,322.818634 
	C1463.284790,331.615479 1461.046753,340.408264 1458.015137,348.812805 
	C1449.161743,373.356720 1429.222534,385.129547 1403.135864,383.667206 
	C1376.662476,382.183228 1361.200195,364.921082 1354.957642,344.716217 
	C1350.164185,329.201294 1347.421997,313.315735 1346.558960,297.139069 
	C1345.028564,268.453125 1344.898804,239.756836 1352.226074,211.736847 
	C1354.587891,202.705490 1359.412476,194.318161 1363.320435,185.343948 
M1378.611450,232.150024 
	C1378.476807,232.971878 1378.225952,233.793533 1378.224609,234.615601 
	C1378.183594,260.414551 1377.661743,286.227325 1378.364746,312.006592 
	C1378.702759,324.406403 1381.170532,336.652344 1387.289429,348.027985 
	C1395.495361,363.283600 1419.278076,362.788696 1427.055908,348.426971 
	C1432.357910,338.636658 1434.704468,328.205017 1435.882690,317.459442 
	C1439.106689,288.055237 1439.061279,258.594421 1435.891846,229.189545 
	C1434.787964,218.948166 1433.095459,208.729050 1427.421021,199.699112 
	C1417.305420,183.601669 1396.683838,183.794220 1387.041870,200.160416 
	C1381.397217,209.741791 1379.965576,220.477524 1378.611450,232.150024 
z"/>
<path fill="#6A37F5" opacity="1.000000" stroke="none" 
	d="
M887.959473,102.000046 
	C887.959351,191.135254 887.960938,279.770477 887.957275,368.405701 
	C887.956726,381.116730 887.945068,381.116974 875.278564,381.116577 
	C870.113708,381.116394 864.940552,380.934265 859.786804,381.172577 
	C855.872375,381.353577 854.319031,379.378479 854.002991,375.933289 
	C853.775085,373.448944 853.668335,370.944855 853.667908,368.449524 
	C853.652344,274.482849 853.650330,180.516190 853.662292,86.549522 
	C853.663879,74.278275 853.820129,74.163376 866.254761,74.163315 
	C870.919800,74.163292 875.585083,74.131485 880.249756,74.171593 
	C886.150879,74.222336 887.642517,75.500290 887.851318,81.509354 
	C888.082581,88.166145 887.939514,94.835930 887.959473,102.000046 
z"/>
<path fill="#6A37F5" opacity="1.000000" stroke="none" 
	d="
M1525.296509,74.163322 
	C1529.757935,74.163567 1533.759766,74.283737 1537.750977,74.128334 
	C1541.344727,73.988396 1543.509521,75.510979 1544.126953,79.008774 
	C1544.558228,81.452225 1544.989868,83.940163 1544.991089,86.408440 
	C1545.036987,180.841904 1545.034302,275.275391 1545.027222,369.708862 
	C1545.027100,371.205292 1545.016235,372.719482 1544.801392,374.194977 
	C1543.963379,379.950989 1542.579834,381.098633 1536.651978,381.114349 
	C1532.155151,381.126251 1527.651245,380.960266 1523.163696,381.164764 
	C1519.479370,381.332672 1517.478271,379.699768 1516.896851,376.233032 
	C1516.486084,373.784424 1516.072510,371.295685 1516.071411,368.824707 
	C1516.030029,275.057373 1516.033081,181.290039 1516.057129,87.522697 
	C1516.057617,85.369751 1516.301025,83.209183 1516.547485,81.065552 
	C1517.111084,76.163338 1519.501099,73.379005 1525.296509,74.163322 
z"/>
<path fill="#B46FEC" opacity="1.000000" stroke="none" 
	d="
M803.648438,534.705444 
	C799.392578,539.321838 795.136658,543.938171 790.880737,548.554565 
	C790.462097,548.367737 790.043396,548.180969 789.624695,547.994202 
	C790.327332,546.255859 790.712341,544.282715 791.791687,542.822876 
	C795.152283,538.277588 798.776184,533.926819 802.297607,529.500427 
	C803.794250,527.619263 806.083252,526.060669 804.260742,523.028442 
	C803.971130,522.546692 805.158508,520.363281 805.587646,520.386108 
	C811.372681,520.693726 811.614807,515.640747 813.584473,512.327881 
	C820.796509,500.197937 827.518494,487.744476 835.341370,476.024506 
	C838.841125,470.781342 844.117065,466.427277 849.342346,462.740295 
	C852.635620,460.416565 857.287964,459.212402 861.400757,459.022308 
	C870.367249,458.607880 874.378662,464.749207 871.151794,473.216278 
	C867.173584,483.654785 859.576050,491.435791 851.375854,498.538452 
	C840.942993,507.574921 830.102234,516.139221 819.530151,525.017700 
	C817.934204,526.357910 816.360962,528.104248 815.601624,529.993958 
	C812.816406,536.925598 810.379150,543.997009 807.582947,551.581177 
	C807.351196,552.557312 807.347412,552.968140 807.343567,553.378967 
	C807.686523,553.024231 808.029480,552.669495 808.372498,552.314758 
	C818.113037,542.528442 827.716064,532.598633 837.679260,523.044495 
	C840.614624,520.229614 844.348145,517.956726 848.108582,516.360718 
	C853.697754,513.988708 856.910339,516.849915 855.768738,522.884399 
	C855.316101,525.276611 854.080261,527.555969 852.994934,529.786377 
	C850.013062,535.914124 846.441833,541.807007 844.042969,548.148193 
	C842.441162,552.382507 842.006592,557.210022 841.851807,561.799133 
	C841.683899,566.778320 844.887085,568.690430 849.516724,566.671692 
	C851.918396,565.624329 854.069641,563.931335 856.204102,562.354187 
	C868.890015,552.980591 878.281555,540.792542 885.992249,527.199829 
	C888.891479,522.088806 893.151367,519.974609 898.923096,521.144165 
	C899.995422,521.361389 900.982361,522.000122 902.750488,522.765381 
	C901.198914,524.569824 900.074829,526.095276 898.735168,527.399292 
	C890.971069,534.956604 884.815735,543.551331 881.793823,554.075012 
	C880.712524,557.840393 878.950806,562.350891 882.724365,565.212341 
	C886.611816,568.160278 890.747681,565.731750 894.223572,563.317200 
	C905.717224,555.332947 913.166565,543.793091 920.780396,532.463135 
	C924.117615,527.496887 926.904663,522.162781 929.993774,517.027161 
	C931.892944,513.869873 935.695068,513.580200 939.778931,516.081055 
	C943.448120,518.327942 940.578186,520.463379 939.549316,522.323425 
	C933.771118,532.769653 926.306519,542.436096 924.491150,554.691223 
	C923.900146,558.681396 921.961426,563.532715 926.000244,566.331421 
	C930.398010,569.378906 934.129028,565.635071 937.559326,563.091248 
	C947.818176,555.483398 956.798950,546.664062 963.174927,535.447205 
	C963.914673,534.145813 964.658813,532.843384 965.321289,531.502075 
	C969.230652,523.586792 967.353149,519.382935 959.182434,517.697449 
	C962.805847,513.649902 974.991150,513.160950 977.344238,517.548828 
	C978.673096,520.026733 978.442505,523.977783 977.589111,526.874939 
	C974.492615,537.386719 970.822266,547.729004 967.415588,558.150635 
	C967.118286,559.060242 967.166443,560.082642 966.914917,562.255737 
	C973.072876,554.286743 978.312988,547.052307 984.026001,540.212769 
	C993.959839,528.320312 1004.075317,516.531982 1017.112671,507.820831 
	C1021.526245,504.871826 1026.187012,501.930115 1031.971680,504.145050 
	C1034.776123,505.218903 1036.872559,506.856049 1036.535400,510.199097 
	C1036.094604,510.514008 1035.757324,510.920685 1035.577148,510.860046 
	C1025.863892,507.590454 1018.461121,512.222778 1011.570984,518.073181 
	C995.078613,532.076965 981.093750,548.293823 969.525635,566.575195 
	C968.291992,568.524780 967.605957,570.816406 966.419495,572.802185 
	C965.672974,574.051575 964.341980,576.021545 963.493652,575.914856 
	C961.796387,575.701416 959.523132,574.653748 958.820068,573.272400 
	C957.867432,571.400818 957.579956,568.763489 958.037292,566.680786 
	C959.462097,560.192078 961.378174,553.811584 963.089905,547.385437 
	C963.507141,545.819031 963.871338,544.238525 963.410950,542.156250 
	C962.623657,543.010132 961.838562,543.866150 961.048645,544.717712 
	C954.605591,551.663696 948.641235,559.160645 941.531982,565.340393 
	C937.490234,568.853699 931.750671,570.798218 926.456299,572.380920 
	C920.856140,574.054932 915.854370,570.828308 915.082336,564.948547 
	C914.299683,558.987305 914.909546,552.843140 914.909546,546.953979 
	C914.590210,547.406860 913.906128,548.527405 913.077087,549.527771 
	C908.418701,555.149475 904.097778,561.117676 898.936401,566.236328 
	C894.020569,571.111511 887.768616,571.711548 881.360901,568.713196 
	C875.364746,565.907349 873.592834,560.900208 873.995789,554.726685 
	C874.057556,553.780396 874.004456,552.826599 874.004456,551.485046 
	C868.614380,556.522705 863.918640,561.708984 858.407715,565.796143 
	C854.386169,568.778687 849.475891,570.971313 844.629517,572.336304 
	C837.622498,574.309814 831.431458,569.535767 832.219666,562.257812 
	C832.990234,555.142944 835.363831,548.124146 837.678223,541.281067 
	C839.252869,536.625122 841.937439,532.344604 844.125732,527.896240 
	C843.851318,527.442993 843.576904,526.989807 843.302490,526.536560 
	C841.385986,527.269836 838.987366,527.506592 837.634460,528.820312 
	C830.982422,535.279724 824.351807,541.798645 818.216431,548.740845 
	C813.267151,554.341003 809.056763,560.591492 804.475403,566.520203 
	C801.260132,570.681213 797.010437,572.750549 790.967468,573.073730 
	C795.523926,560.235901 799.837280,548.082947 804.386353,535.379211 
	C804.631897,534.417114 804.641724,534.005859 804.651489,533.594604 
	C804.317139,533.964844 803.982788,534.335144 803.648438,534.705444 
M866.778076,468.987701 
	C866.462769,467.299896 866.562988,464.468506 865.742737,464.170441 
	C864.197266,463.608856 861.943604,464.128479 860.310608,464.894379 
	C858.242188,465.864502 856.389709,467.401154 854.632996,468.913025 
	C840.046814,481.465332 830.569336,497.646790 822.311157,514.676086 
	C822.057251,515.199646 822.148743,515.890808 821.912109,517.976440 
	C828.000427,513.088440 833.350891,509.223450 838.203003,504.810425 
	C849.433838,494.595673 860.313477,484.027222 866.778076,468.987701 
M964.712280,540.546814 
	C964.553162,540.533386 964.394043,540.520020 964.234985,540.506592 
	C964.305847,540.614990 964.376709,540.723389 964.712280,540.546814 
z"/>
<path fill="#B46EEC" opacity="1.000000" stroke="none" 
	d="
M705.244263,526.213501 
	C707.967651,521.213379 710.738281,516.636169 712.943909,511.801208 
	C714.425293,508.553864 715.099365,504.939362 716.149231,501.493561 
	C716.629272,499.917999 716.706848,497.951538 717.717041,496.851013 
	C722.843750,491.266449 727.685303,485.209656 733.653625,480.667725 
	C739.545532,476.183929 747.744873,479.207672 750.813721,486.051270 
	C741.200806,485.817444 735.926575,492.624634 730.927429,498.954987 
	C716.406006,517.343384 705.411926,537.875305 695.960083,559.254883 
	C695.691345,559.862610 695.301636,560.504578 695.305176,561.128723 
	C695.315979,563.026123 695.492065,564.922668 695.603760,566.819458 
	C697.464844,566.088196 699.561951,565.680847 701.125854,564.541504 
	C702.976318,563.193359 704.293884,561.137939 705.971924,559.523682 
	C709.158203,556.458618 711.971375,557.192932 713.412476,561.376099 
	C713.520752,561.690369 713.677124,562.010559 713.688477,562.332336 
	C714.158508,575.625488 724.513550,579.599915 735.772705,578.879639 
	C744.396912,578.327942 752.516724,576.083740 759.010010,569.866699 
	C766.408752,562.782715 767.647827,552.712646 761.175049,543.055603 
	C757.245178,537.192383 751.928955,532.233337 747.055298,527.037048 
	C744.099915,523.886108 740.546997,521.273376 737.760376,517.995605 
	C736.316650,516.297363 734.680237,513.005249 735.404297,511.630615 
	C736.510376,509.530731 739.463074,507.414368 741.843750,507.139252 
	C754.985474,505.620728 767.109863,501.236023 778.460083,494.748627 
	C782.424683,492.482605 786.207703,489.423218 789.147827,485.943817 
	C794.499207,479.610962 792.614014,472.641449 785.006104,469.376678 
	C782.152344,468.152039 778.942688,467.198395 775.871399,467.125366 
	C744.575073,466.381165 714.524109,471.585785 687.143250,487.553894 
	C681.994934,490.556305 677.303467,495.116821 673.782654,499.962189 
	C667.810303,508.181427 670.294983,514.987244 679.573853,518.971558 
	C681.791687,519.923889 683.986877,520.928955 685.979553,523.064026 
	C684.977905,523.250610 683.909241,523.762817 682.985168,523.572632 
	C675.127502,521.954834 667.977600,518.709595 665.584839,510.464325 
	C662.904785,501.228943 666.777954,493.637268 673.650513,487.298706 
	C689.403198,472.769989 708.455688,465.630768 729.185730,462.096710 
	C744.980591,459.403992 760.832947,457.320068 776.790649,460.155029 
	C781.091187,460.919037 785.559692,462.592651 789.175049,465.009583 
	C800.015076,472.256256 800.511780,484.977814 791.030151,493.960114 
	C782.133423,502.388184 770.878540,505.276215 759.515564,507.930603 
	C754.682495,509.059631 749.717285,509.623016 743.834839,510.606903 
	C745.976562,512.000793 747.779419,512.964111 749.340393,514.226379 
	C756.043457,519.646973 763.173950,524.661133 769.213684,530.750732 
	C777.757629,539.365051 778.356323,550.355042 772.230652,560.951782 
	C765.463684,572.657776 754.808350,578.450562 742.024414,580.910706 
	C738.295715,581.628235 734.424438,581.947876 730.626038,581.896301 
	C718.783325,581.735779 708.242920,579.266968 705.065369,564.742737 
	C703.646057,566.647522 702.803101,568.025696 701.718994,569.176758 
	C700.021851,570.978760 698.414062,573.528748 696.308228,574.118286 
	C693.517700,574.899414 690.102356,574.618652 687.350891,573.659912 
	C686.519958,573.370422 686.188843,568.965576 687.013123,567.037720 
	C692.823364,553.447510 698.994873,540.011841 705.244263,526.213501 
z"/>
<path fill="#B46EEC" opacity="1.000000" stroke="none" 
	d="
M1058.750488,545.741028 
	C1051.614624,552.471924 1044.811035,559.607239 1037.249878,565.820374 
	C1029.628296,572.083191 1021.912231,571.894836 1015.919922,566.551025 
	C1010.279236,561.520691 1009.133118,555.764282 1012.695435,549.031555 
	C1019.448730,536.268188 1030.732788,528.214905 1042.823730,521.372742 
	C1048.367920,518.235291 1054.667114,516.067017 1060.894653,514.641907 
	C1064.498047,513.817261 1068.836060,514.774109 1072.468628,516.021240 
	C1074.786743,516.817078 1076.419067,519.610168 1077.850708,522.151794 
	C1069.118408,517.382141 1061.077026,519.639038 1053.268433,523.316833 
	C1040.117432,529.510864 1029.617432,538.795044 1022.378052,551.473816 
	C1020.768799,554.292236 1019.425659,557.549561 1019.063293,560.730469 
	C1018.398254,566.566833 1021.729309,568.927673 1026.584229,565.755249 
	C1033.230225,561.412537 1039.577148,556.462341 1045.432007,551.095764 
	C1053.161499,544.011108 1060.191162,536.167908 1067.766113,528.905762 
	C1069.149414,527.579468 1071.842896,526.645935 1073.686890,526.961365 
	C1078.693115,527.817810 1079.123779,529.306824 1076.373413,533.683960 
	C1071.258423,541.824036 1067.301147,550.430481 1067.163696,560.202759 
	C1067.131714,562.481079 1068.411987,565.691284 1070.153442,566.800049 
	C1071.617554,567.732239 1075.073120,566.902771 1076.887939,565.704041 
	C1092.402954,555.455933 1105.239624,543.046082 1108.949463,523.724670 
	C1109.166748,522.593567 1109.481445,521.438660 1109.990234,520.413818 
	C1111.802734,516.762817 1114.898682,516.758728 1118.104858,517.992493 
	C1121.693970,519.373596 1120.024170,522.023132 1119.171021,524.226318 
	C1116.346924,531.518005 1113.385254,538.756165 1110.520874,546.032349 
	C1109.828369,547.791809 1109.306641,549.618530 1109.662476,551.927246 
	C1113.702393,547.567627 1117.602783,543.067383 1121.815430,538.881592 
	C1127.954468,532.781555 1134.102661,526.653625 1140.688599,521.057373 
	C1143.481689,518.684021 1147.243896,517.021423 1150.837158,516.129028 
	C1155.288330,515.023560 1157.817261,517.755371 1156.459595,522.118713 
	C1154.889771,527.164551 1152.260742,531.870178 1150.421875,536.845642 
	C1147.733643,544.118835 1144.958984,551.403503 1143.047607,558.894226 
	C1142.459961,561.197449 1143.863403,565.579712 1145.645020,566.492554 
	C1147.586182,567.487305 1151.745483,566.403320 1153.687012,564.753662 
	C1161.645264,557.992126 1169.138672,550.682434 1176.770386,543.539429 
	C1177.893799,542.487976 1178.841553,541.248718 1179.870605,540.096375 
	C1180.301514,540.340881 1180.732422,540.585388 1181.163208,540.829956 
	C1180.681519,542.189880 1180.576172,543.920837 1179.658936,544.851562 
	C1171.638794,552.989563 1163.526855,561.040222 1155.293579,568.962341 
	C1154.050659,570.158264 1152.095215,570.718262 1150.376953,571.298828 
	C1138.590088,575.281311 1131.305054,570.327332 1133.303101,558.247925 
	C1134.734741,549.593445 1139.127930,541.426270 1142.229370,533.052612 
	C1142.888062,531.274109 1143.674438,529.542847 1144.401978,527.789795 
	C1144.052612,527.362671 1143.703369,526.935486 1143.354004,526.508362 
	C1141.030029,527.694885 1138.132568,528.354858 1136.478638,530.156494 
	C1128.065063,539.321106 1120.010498,548.814026 1111.754150,558.124573 
	C1107.407715,563.026001 1104.721680,569.642517 1097.811646,571.932190 
	C1096.167603,572.476929 1094.435303,572.754761 1091.775879,573.384460 
	C1094.122070,566.396912 1096.142334,560.380432 1098.162598,554.363953 
	C1097.820801,554.144043 1097.479126,553.924072 1097.137329,553.704163 
	C1094.573242,556.175598 1092.265015,559.009094 1089.390259,561.040955 
	C1083.881470,564.934570 1078.425049,569.309387 1072.262695,571.772522 
	C1063.763184,575.169861 1057.310547,570.164551 1057.351440,560.935303 
	C1057.371826,556.335754 1058.600952,551.741577 1059.481689,546.563110 
	C1059.608154,545.702759 1059.536133,545.424255 1059.464233,545.145752 
	C1059.226318,545.344238 1058.988403,545.542664 1058.750488,545.741028 
M1098.276611,552.544006 
	C1098.276611,552.544006 1098.565186,552.712219 1098.565186,552.712219 
	C1098.565186,552.712219 1098.515747,552.320679 1098.276611,552.544006 
z"/>
<path fill="#BC86E8" opacity="1.000000" stroke="none" 
	d="
M249.981293,170.986053 
	C234.827530,170.102219 220.153656,169.228821 205.051987,168.329987 
	C208.850754,151.305954 212.442932,135.207779 216.218857,118.286064 
	C247.555908,136.815262 278.090912,154.870239 308.625916,172.925201 
	C308.508698,173.403671 308.391479,173.882156 308.274231,174.360641 
	C289.003235,173.239258 269.732208,172.117874 249.981293,170.986053 
z"/>
<path fill="#BC85E8" opacity="1.000000" stroke="none" 
	d="
M182.983490,257.985229 
	C182.521759,259.193451 182.265076,260.537354 181.568359,261.590057 
	C163.661072,288.647644 145.708771,315.675415 127.757629,342.703949 
	C127.308990,343.379486 126.785469,344.005280 125.930832,345.140472 
	C113.500000,333.625488 101.249039,322.277130 88.519234,310.485199 
	C120.211624,292.765991 151.253693,275.410400 182.647064,258.026611 
	C182.998337,257.998413 182.983490,257.985229 182.983490,257.985229 
z"/>
<path fill="#BC85E8" opacity="1.000000" stroke="none" 
	d="
M197.569702,421.393677 
	C211.408798,448.950653 225.063904,476.183380 239.086075,504.148132 
	C222.904755,509.251038 207.030014,514.257263 190.931732,519.333984 
	C190.931732,482.811066 190.931732,446.944885 190.931732,411.078705 
	C191.274353,410.967773 191.616959,410.856812 191.959579,410.745880 
	C193.768295,414.187073 195.577026,417.628265 197.569702,421.393677 
z"/>
<path fill="#BC85E8" opacity="1.000000" stroke="none" 
	d="
M532.294922,352.284424 
	C507.614594,366.676270 483.252808,380.887939 458.891022,395.099609 
	C458.528137,394.787109 458.165253,394.474609 457.802399,394.162140 
	C476.299652,365.410553 494.796936,336.658966 513.848633,307.045593 
	C526.436707,318.458038 538.623779,329.506866 551.346313,341.041168 
	C544.790588,344.912811 538.702026,348.508514 532.294922,352.284424 
z"/>
<path fill="#BB85E8" opacity="1.000000" stroke="none" 
	d="
M442.383057,134.396240 
	C444.018097,133.959244 445.287567,133.673477 446.849976,133.321762 
	C446.849976,169.462097 446.849976,205.317017 446.849976,241.171936 
	C446.567596,241.292572 446.285248,241.413208 446.002869,241.533829 
	C430.357666,210.688828 414.712433,179.843826 398.690277,148.255646 
	C413.385620,143.606216 427.701569,139.076843 442.383057,134.396240 
z"/>
<path fill="#BC85E8" opacity="1.000000" stroke="none" 
	d="
M401.443237,522.575989 
	C377.038330,508.278625 352.939453,494.181732 328.840546,480.084869 
	C328.883575,479.779144 328.926636,479.473450 328.969696,479.167725 
	C363.525787,481.206573 398.081879,483.245392 433.398071,485.329071 
	C429.687195,501.823364 426.102264,517.757874 422.321075,534.564636 
	C415.134308,530.446472 408.441742,526.611450 401.443237,522.575989 
z"/>
<path fill="#BB85E8" opacity="1.000000" stroke="none" 
	d="
M197.017059,408.984497 
	C196.871933,408.844177 196.714828,408.714874 196.557724,408.585571 
	C196.661926,408.625916 196.766129,408.666260 196.927734,408.863342 
	C196.985123,409.020111 197.005081,408.995514 197.017059,408.984497 
z"/>
<path fill="#BC85E8" opacity="1.000000" stroke="none" 
	d="
M183.003937,258.005249 
	C183.120667,257.997406 183.231796,257.982727 183.163208,257.976624 
	C182.983490,257.985229 182.998337,257.998413 183.003937,258.005249 
z"/>
<path fill="#FEFEFF" opacity="1.000000" stroke="none" 
	d="
M749.070190,353.256073 
	C736.395142,353.910339 724.121643,354.673645 711.837219,354.940002 
	C699.236023,355.213257 699.231323,355.000549 699.231384,342.221344 
	C699.231384,308.060120 699.227295,273.898895 699.234619,239.737656 
	C699.236328,231.718994 699.254333,231.717911 707.284180,231.717133 
	C718.115784,231.716080 728.977600,232.232208 739.772095,231.599289 
	C757.099487,230.583328 767.706543,239.521317 774.725525,253.982803 
	C782.401367,269.797699 782.976196,286.733978 781.499329,303.841095 
	C780.517517,315.214355 777.987671,326.189087 771.944641,336.092651 
	C766.681885,344.717468 759.320862,350.574432 749.070190,353.256073 
z"/>
<path fill="#FEFDFF" opacity="1.000000" stroke="none" 
	d="
M699.229553,175.999969 
	C699.229797,153.175888 699.216370,130.851776 699.238159,108.527710 
	C699.244934,101.605972 699.673828,101.156105 706.616089,101.231773 
	C718.434692,101.360603 730.279236,101.153816 742.062988,101.888458 
	C754.861694,102.686371 764.059753,109.813293 768.866577,121.405693 
	C777.369934,141.913132 778.489563,163.191956 771.910217,184.410370 
	C767.134827,199.810806 757.688232,206.000549 741.731628,206.001740 
	C729.403381,206.002670 717.072266,205.849380 704.748535,206.084900 
	C700.460999,206.166840 699.157471,204.380676 699.203552,200.489670 
	C699.298340,192.494125 699.230408,184.496643 699.229553,175.999969 
z"/>
<path fill="#FEFEFF" opacity="1.000000" stroke="none" 
	d="
M1378.675659,231.702148 
	C1379.965576,220.477524 1381.397217,209.741791 1387.041870,200.160416 
	C1396.683838,183.794220 1417.305420,183.601669 1427.421021,199.699112 
	C1433.095459,208.729050 1434.787964,218.948166 1435.891846,229.189545 
	C1439.061279,258.594421 1439.106689,288.055237 1435.882690,317.459442 
	C1434.704468,328.205017 1432.357910,338.636658 1427.055908,348.426971 
	C1419.278076,362.788696 1395.495361,363.283600 1387.289429,348.027985 
	C1381.170532,336.652344 1378.702759,324.406403 1378.364746,312.006592 
	C1377.661743,286.227325 1378.183594,260.414551 1378.224609,234.615601 
	C1378.225952,233.793533 1378.476807,232.971878 1378.675659,231.702148 
z"/>
<path fill="#FDFCFE" opacity="1.000000" stroke="none" 
	d="
M866.646729,469.356049 
	C860.313477,484.027222 849.433838,494.595673 838.203003,504.810425 
	C833.350891,509.223450 828.000427,513.088440 821.912109,517.976440 
	C822.148743,515.890808 822.057251,515.199646 822.311157,514.676086 
	C830.569336,497.646790 840.046814,481.465332 854.632996,468.913025 
	C856.389709,467.401154 858.242188,465.864502 860.310608,464.894379 
	C861.943604,464.128479 864.197266,463.608856 865.742737,464.170441 
	C866.562988,464.468506 866.462769,467.299896 866.646729,469.356049 
z"/>
<path fill="#FFFFFF" opacity="1.000000" stroke="none" 
	d="
M803.790649,534.823303 
	C803.982788,534.335144 804.317139,533.964844 804.651489,533.594604 
	C804.641724,534.005859 804.631897,534.417114 804.417969,535.004700 
	C804.213867,535.181030 803.932800,534.941223 803.790649,534.823303 
z"/>
<path fill="#FFFFFF" opacity="1.000000" stroke="none" 
	d="
M808.213013,552.180542 
	C808.029480,552.669495 807.686523,553.024231 807.343567,553.378967 
	C807.347412,552.968140 807.351196,552.557312 807.546631,551.959961 
	C807.738220,551.773499 808.053467,552.046326 808.213013,552.180542 
z"/>
<path fill="#FFFFFF" opacity="1.000000" stroke="none" 
	d="
M964.579956,540.689331 
	C964.376709,540.723389 964.305847,540.614990 964.234985,540.506592 
	C964.394043,540.520020 964.553162,540.533386 964.579956,540.689331 
z"/>
<path fill="#FFFFFF" opacity="1.000000" stroke="none" 
	d="
M1058.899536,545.891174 
	C1058.988403,545.542664 1059.226318,545.344238 1059.464233,545.145752 
	C1059.536133,545.424255 1059.608154,545.702759 1059.515381,546.159424 
	C1059.350708,546.337585 1059.048584,546.041260 1058.899536,545.891174 
z"/>
<path fill="#FFFFFF" opacity="1.000000" stroke="none" 
	d="
M1098.396240,552.432373 
	C1098.515747,552.320679 1098.565186,552.712219 1098.565186,552.712219 
	C1098.565186,552.712219 1098.276611,552.544006 1098.396240,552.432373 
z"/>
</svg>